<?xml version="1.0" encoding="UTF-8"?>
<svg width="20px" height="20px" viewBox="0 0 20 20" version="1.1" xmlns="http://www.w3.org/2000/svg" xmlns:xlink="http://www.w3.org/1999/xlink">
    <circle cx="10" cy="10" r="10" fill="#FDE610" stroke-width="0.5" stroke="#444"/>
    <g id="wallet_main" transform="translate(-1,-1)">
        <path d="M6.31176989,9.05424184 L9.77072744,6.80291292 L6.06212658,6.7909065 L5.2041923,9.62704815 L7.67279182,9.64293165 L6.31176989,9.05424184 Z M16.2285926,9.64293165 L17.1372893,6.7909065 L13.0971386,6.7909065 L11.9779127,8.64852488 L14.5244951,9.63092523 L16.2285926,9.64293165 Z M17.9562322,6.04313162 L16.6771168,10.2753949 L13.4637562,10.2753949 L13.4364132,10.2952805 L13.1556258,9.92133052 L10.609166,8.83149773 L10.7690554,8.57285942 L12.2860431,6.14255979 L12.2978141,6.12267416 L7.9339609,8.97069716 L10.2153279,10.187848 L8.49945938,12.7335844 L8.12119337,12.4670669 L8.76467474,10.2753949 L4.38917313,10.2753949 L5.65664014,6.04313162 L11.1395967,6.04313162 L11.5645789,6.04313162 L13.8108781,4.57534671 L12.8982578,6.04313162 L17.9562322,6.04313162 Z" id="Fill-5" fill="#3A3A3A"></path>
        <polygon id="Fill-7" fill="#FDE610" points="17.1372893 6.79094402 16.2285926 9.64296917 14.5244951 9.63096275 11.9779127 8.6485624 13.0971386 6.79094402"></polygon>
        <path d="M10.6247748,17.1846271 L11.9155386,12.1608156 L8.08223872,15.2036928 L7.46217674,17.1846271 L10.6247748,17.1846271 Z M13.1556626,9.92136804 L13.43645,10.295318 L12.9685527,10.6612637 L11.2253411,18.0119446 L6.38586588,18.0119446 L7.29063893,15.2673519 L7.36077448,15.0008343 L5.37969057,16.5322783 L8.12123016,12.4671044 L8.49949617,12.7336219 L7.39191858,14.3763754 L13.1556626,9.92136804 Z" id="Fill-9" fill="#3A3A3A"></path>
        <polygon id="Fill-11" fill="#FDE610" points="13.1556748 9.92134303 7.39193085 14.3763504 8.49950843 12.7335969 10.215377 10.1878606 7.93400994 8.97070967 12.2977405 6.12268666 12.2860922 6.1425723 10.7691045 8.57287192 10.609215 8.83151023"></polygon>
        <polygon id="Fill-13" fill="#FDE610" points="11.9155754 12.1608156 10.6248116 17.1846271 7.46221353 17.1846271 8.08215289 15.2036928"></polygon>
        <polygon id="Fill-15" fill="#FDE610" points="9.77077648 6.80285039 6.31181893 9.05417931 7.67271825 9.64286911 5.20424135 9.62698562 6.06217563 6.79096903"></polygon>
    </g>
</svg>
